<svg width="1196" height="87" viewBox="0 0 1196 87" fill="none" xmlns="http://www.w3.org/2000/svg">
<line y1="0.5" x2="1196" y2="0.5" stroke="white"/>
<line y1="86.5" x2="1196" y2="86.5" stroke="white"/>
<line x1="9" y1="3.5" x2="1188" y2="3.5" stroke="white"/>
<line x1="9" y1="83.5" x2="1188" y2="83.5" stroke="white"/>
<line x1="0.5" y1="1" x2="0.5" y2="86" stroke="white"/>
<line x1="1195.5" y1="1" x2="1195.5" y2="86" stroke="white"/>
<line x1="1192.5" y1="6" x2="1192.5" y2="81" stroke="white"/>
<line x1="4.5" y1="6" x2="4.5" y2="81" stroke="white"/>
<line x1="1187.5" y1="4" x2="1187.5" y2="7" stroke="white"/>
<line x1="1188" y1="6.5" x2="1193" y2="6.5" stroke="white"/>
<line x1="1187.5" y1="84" x2="1187.5" y2="80" stroke="white"/>
<line x1="1193" y1="80.5" x2="1188" y2="80.5" stroke="white"/>
<line x1="4" y1="6.5" x2="9" y2="6.5" stroke="white"/>
<line x1="8.5" y1="3" x2="8.5" y2="7" stroke="white"/>
<line x1="5" y1="80.5" x2="9" y2="80.5" stroke="white"/>
<line x1="8.5" y1="80" x2="8.5" y2="84" stroke="white"/>
</svg>
