<svg width="302" height="28" viewBox="0 0 302 28" fill="none" xmlns="http://www.w3.org/2000/svg">
<path d="M1 0.5L302 1.5" stroke="white"/>
<path d="M7.5 3.5L296.5 3.5" stroke="white"/>
<path d="M7.5 23.5L296.5 23.5" stroke="white"/>
<path d="M302 26.5L0.999996 27.5" stroke="white"/>
<path d="M301.5 1.5L301.5 26.5" stroke="white"/>
<path d="M1 0.5L0.999998 27.5" stroke="white" stroke-width="2"/>
<line x1="296" y1="3.5" x2="296" y2="8.5" stroke="white"/>
<line x1="296" y1="23.5" x2="296" y2="19.5" stroke="white"/>
<line x1="295.5" y1="8" x2="300.5" y2="8" stroke="white"/>
<line x1="296.5" y1="20" x2="300.5" y2="20" stroke="white"/>
<line x1="299.5" y1="8.5" x2="299.5" y2="19.5" stroke="white" stroke-width="2"/>
<line y1="-0.5" x2="5" y2="-0.5" transform="matrix(0 1 1 0 8.5 3.5)" stroke="white"/>
<line y1="-0.5" x2="4" y2="-0.5" transform="matrix(1.02771e-08 -1 -1 -1.02771e-08 7.5 23.5)" stroke="white"/>
<line y1="-0.5" x2="5" y2="-0.5" transform="matrix(-1 0 0 1 8.5 8.5)" stroke="white"/>
<line y1="-0.5" x2="4" y2="-0.5" transform="matrix(-1 -1.0277e-08 -1.0277e-08 1 7.5 20.5)" stroke="white"/>
<line y1="-1" x2="11" y2="-1" transform="matrix(0 1 1 0 5.5 8.5)" stroke="white" stroke-width="2"/>
</svg>
